<svg width="107" height="50" viewBox="0 0 107 50" fill="none" xmlns="http://www.w3.org/2000/svg">
<path d="M61.6367 33.6064V13.6545H65.251V30.5766H74.0384V33.6064H61.6367Z" fill="#040404"/>
<path d="M77.0195 33.6064V18.6425H80.5462V33.6064H77.0195ZM78.7926 16.5187C78.234 16.5187 77.7534 16.3336 77.3507 15.9634C76.9481 15.5867 76.7467 15.1353 76.7467 14.6093C76.7467 14.0767 76.9481 13.6253 77.3507 13.2551C77.7534 12.8784 78.234 12.6901 78.7926 12.6901C79.3576 12.6901 79.8382 12.8784 80.2344 13.2551C80.6371 13.6253 80.8384 14.0767 80.8384 14.6093C80.8384 15.1353 80.6371 15.5867 80.2344 15.9634C79.8382 16.3336 79.3576 16.5187 78.7926 16.5187Z" fill="#040404"/>
<path d="M95.9996 22.5978L92.7847 22.9485C92.6938 22.6238 92.5346 22.3185 92.3073 22.0327C92.0865 21.747 91.7877 21.5164 91.411 21.3411C91.0343 21.1657 90.5732 21.078 90.0277 21.078C89.2938 21.078 88.6768 21.2371 88.1767 21.5554C87.6831 21.8736 87.4395 22.286 87.446 22.7926C87.4395 23.2278 87.5986 23.5817 87.9234 23.8545C88.2546 24.1273 88.8002 24.3514 89.56 24.5267L92.1125 25.0723C93.5283 25.3775 94.5805 25.8614 95.2689 26.5239C95.9639 27.1863 96.3146 28.0534 96.3211 29.125C96.3146 30.0667 96.0385 30.8981 95.493 31.619C94.9539 32.3334 94.2038 32.892 93.2426 33.2946C92.2813 33.6973 91.1772 33.8986 89.9302 33.8986C88.0987 33.8986 86.6244 33.5154 85.5073 32.7491C84.3902 31.9762 83.7245 30.9013 83.5102 29.5244L86.9492 29.1932C87.105 29.8686 87.4363 30.3785 87.9429 30.7227C88.4494 31.0669 89.1087 31.239 89.9205 31.239C90.7583 31.239 91.4305 31.0669 91.9371 30.7227C92.4502 30.3785 92.7067 29.9531 92.7067 29.4465C92.7067 29.0178 92.5411 28.6639 92.2099 28.3846C91.8852 28.1053 91.3786 27.891 90.6901 27.7416L88.1377 27.2058C86.7024 26.907 85.6405 26.4037 84.952 25.6958C84.2636 24.9814 83.9226 24.0786 83.9291 22.9875C83.9226 22.0652 84.1727 21.2664 84.6792 20.5909C85.1923 19.909 85.9035 19.3829 86.8128 19.0127C87.7285 18.636 88.7839 18.4477 89.979 18.4477C91.7325 18.4477 93.1127 18.8211 94.1194 19.568C95.1325 20.3149 95.7593 21.3248 95.9996 22.5978Z" fill="#040404"/>
<path d="M106.701 18.6425V21.3703H98.099V18.6425H106.701ZM100.223 15.0574H103.749V29.1055C103.749 29.5796 103.821 29.9433 103.964 30.1966C104.113 30.4434 104.308 30.6123 104.548 30.7032C104.789 30.7942 105.055 30.8396 105.347 30.8396C105.568 30.8396 105.769 30.8234 105.951 30.7909C106.139 30.7584 106.282 30.7292 106.38 30.7032L106.974 33.4602C106.786 33.5252 106.516 33.5966 106.165 33.6746C105.821 33.7525 105.399 33.798 104.899 33.811C104.016 33.8369 103.22 33.7038 102.512 33.4115C101.804 33.1128 101.242 32.6516 100.827 32.0282C100.418 31.4047 100.216 30.6253 100.223 29.69V15.0574Z" fill="#040404"/>
<path d="M43.894 44.1024V6.85845C43.894 3.07063 40.8234 0 37.0356 0H6.85845C3.07063 0 0 3.07062 0 6.85844V43.9765C0 44.6188 0.0900666 45.2511 0.262801 45.8569C0.940609 48.2339 3.63623 49.0725 6.10801 49.0725H19.603H25.9349L37.7696 49.059C40.344 49.056 43.1593 48.123 43.7259 45.6117C43.8368 45.1204 43.894 44.6144 43.894 44.1024Z" fill="#2CA85E"/>
<path d="M13.9152 40.7588H8.90176V27.729H13.8643C15.2046 27.729 16.3625 27.9898 17.338 28.5115C18.3178 29.029 19.0728 29.7755 19.603 30.751C20.1374 31.7223 20.4046 32.8866 20.4046 34.2439C20.4046 35.6011 20.1395 36.7675 19.6093 37.7431C19.0792 38.7144 18.3284 39.4609 17.3571 39.9826C16.3858 40.5 15.2385 40.7588 13.9152 40.7588ZM12.4391 37.7558H13.7879C14.4326 37.7558 14.9819 37.6519 15.4357 37.4441C15.8938 37.2362 16.2416 36.8778 16.4791 36.3688C16.7209 35.8599 16.8418 35.1515 16.8418 34.2439C16.8418 33.3362 16.7188 32.6279 16.4728 32.1189C16.231 31.6099 15.8747 31.2515 15.4039 31.0437C14.9374 30.8358 14.3648 30.7319 13.6861 30.7319H12.4391V37.7558Z" fill="white"/>
<path d="M34.6639 34.2439C34.6639 35.6945 34.3818 36.9181 33.8177 37.9149C33.2536 38.9074 32.4922 39.6602 31.5337 40.1734C30.5751 40.6824 29.5063 40.9369 28.3271 40.9369C27.1395 40.9369 26.0664 40.6803 25.1079 40.1671C24.1535 39.6496 23.3943 38.8946 22.8302 37.9021C22.2703 36.9054 21.9904 35.686 21.9904 34.2439C21.9904 32.7933 22.2703 31.5717 22.8302 30.5792C23.3943 29.5825 24.1535 28.8296 25.1079 28.3207C26.0664 27.8074 27.1395 27.5508 28.3271 27.5508C29.5063 27.5508 30.5751 27.8074 31.5337 28.3207C32.4922 28.8296 33.2536 29.5825 33.8177 30.5792C34.3818 31.5717 34.6639 32.7933 34.6639 34.2439ZM31.0247 34.2439C31.0247 33.4634 30.9208 32.806 30.713 32.2716C30.5094 31.7329 30.2061 31.3257 29.8032 31.05C29.4045 30.7701 28.9125 30.6301 28.3271 30.6301C27.7418 30.6301 27.2477 30.7701 26.8447 31.05C26.446 31.3257 26.1428 31.7329 25.9349 32.2716C25.7314 32.806 25.6296 33.4634 25.6296 34.2439C25.6296 35.0243 25.7314 35.6838 25.9349 36.2225C26.1428 36.7569 26.446 37.1641 26.8447 37.4441C27.2477 37.7197 27.7418 37.8576 28.3271 37.8576C28.9125 37.8576 29.4045 37.7197 29.8032 37.4441C30.2061 37.1641 30.5094 36.7569 30.713 36.2225C30.9208 35.6838 31.0247 35.0243 31.0247 34.2439Z" fill="white"/>
<path d="M8.54548 13.1112V10.2609H19.8702V13.1112H15.9511V23.2907H12.4646V13.1112H8.54548Z" fill="white"/>
<path d="M33.2117 16.7758C33.2117 18.2264 32.9296 19.4501 32.3655 20.4468C31.8014 21.4393 31.0401 22.1922 30.0815 22.7054C29.1229 23.2144 28.0541 23.4689 26.875 23.4689C25.6874 23.4689 24.6143 23.2122 23.6557 22.699C22.7014 22.1816 21.9421 21.4266 21.378 20.4341C20.8182 19.4373 20.5382 18.2179 20.5382 16.7758C20.5382 15.3252 20.8182 14.1037 21.378 13.1112C21.9421 12.1145 22.7014 11.3616 23.6557 10.8526C24.6143 10.3394 25.6874 10.0828 26.875 10.0828C28.0541 10.0828 29.1229 10.3394 30.0815 10.8526C31.0401 11.3616 31.8014 12.1145 32.3655 13.1112C32.9296 14.1037 33.2117 15.3252 33.2117 16.7758ZM29.5725 16.7758C29.5725 15.9954 29.4686 15.338 29.2608 14.8035C29.0572 14.2649 28.7539 13.8577 28.351 13.582C27.9523 13.3021 27.4603 13.1621 26.875 13.1621C26.2896 13.1621 25.7955 13.3021 25.3926 13.582C24.9939 13.8577 24.6906 14.2649 24.4828 14.8035C24.2792 15.338 24.1774 15.9954 24.1774 16.7758C24.1774 17.5563 24.2792 18.2158 24.4828 18.7545C24.6906 19.2889 24.9939 19.6961 25.3926 19.976C25.7955 20.2517 26.2896 20.3896 26.875 20.3896C27.4603 20.3896 27.9523 20.2517 28.351 19.976C28.7539 19.6961 29.0572 19.2889 29.2608 18.7545C29.4686 18.2158 29.5725 17.5563 29.5725 16.7758Z" fill="white"/>
</svg>
